HIERARCHY
ROOT Hips
{
    OFFSET 0.000000 0.000000 0.000000
    CHANNELS 6 Xposition Yposition Zposition Zrotation Yrotation Xrotation
    JOINT Chest
    {
        OFFSET 0.000000 1.634758 -0.000000
        CHANNELS 3 Zrotation Yrotation Xrotation
        JOINT Chest2
        {
            OFFSET 0.000000 2.197341 0.000000
            CHANNELS 3 Zrotation Yrotation Xrotation
            JOINT Neck
            {
                OFFSET 0.000000 0.961544 0.000000
                CHANNELS 3 Zrotation Yrotation Xrotation
                JOINT Head
                {
                    OFFSET 0.000000 0.632542 -0.032565
                    CHANNELS 3 Zrotation Yrotation Xrotation
                    End Site
                    {
                        OFFSET -0.000001 0.439502 2.922845
                    }
                }
            }
            JOINT LeftCollar
            {
                OFFSET 0.167536 0.778237 -0.168280
                CHANNELS 3 Zrotation Yrotation Xrotation
                JOINT LeftShoulder
                {
                    OFFSET 0.831514 -0.002900 0.006458
                    CHANNELS 3 Zrotation Yrotation Xrotation
                    JOINT LeftElbow
                    {
                        OFFSET 2.272872 -0.026639 0.059314
                        CHANNELS 3 Zrotation Yrotation Xrotation
                        JOINT LeftWrist
                        {
                            OFFSET 2.081982 -0.024402 0.054333
                            CHANNELS 3 Zrotation Yrotation Xrotation
                            JOINT LeftHandThumb1
                            {
                                OFFSET 0.218903 -0.128645 0.283837
                                CHANNELS 3 Zrotation Yrotation Xrotation
                                JOINT LeftHandThumb2
                                {
                                    OFFSET 0.137157 -0.025101 0.077902
                                    CHANNELS 3 Zrotation Yrotation Xrotation
                                    JOINT LeftHandThumb3
                                    {
                                        OFFSET 0.165752 -0.053040 0.057029
                                        CHANNELS 3 Zrotation Yrotation Xrotation
                                        End Site
                                        {
                                            OFFSET 0.213169 0.024299 0.160640
                                        }
                                    }
                                }
                            }
                            JOINT LeftHandFore1
                            {
                                OFFSET 0.767340 -0.016076 0.196678
                                CHANNELS 3 Zrotation Yrotation Xrotation
                                JOINT LeftHandFore2
                                {
                                    OFFSET 0.190807 -0.102752 -0.005489
                                    CHANNELS 3 Zrotation Yrotation Xrotation
                                    JOINT LeftHandFore3
                                    {
                                        OFFSET -0.094852 -0.088112 -0.001462
                                        CHANNELS 3 Zrotation Yrotation Xrotation
                                        End Site
                                        {
                                            OFFSET -0.120269 0.150840 0.012222
                                        }
                                    }
                                }
                            }
                            JOINT LeftHandMiddle1
                            {
                                OFFSET 0.709887 -0.008320 0.018526
                                CHANNELS 3 Zrotation Yrotation Xrotation
                                JOINT LeftHandMiddle2
                                {
                                    OFFSET 0.176999 -0.169339 -0.007693
                                    CHANNELS 3 Zrotation Yrotation Xrotation
                                    JOINT LeftHandMiddle3
                                    {
                                        OFFSET -0.101476 -0.104386 -0.013763
                                        CHANNELS 3 Zrotation Yrotation Xrotation
                                        End Site
                                        {
                                            OFFSET -0.146808 0.181365 0.034419
                                        }
                                    }
                                }
                            }
                            JOINT LeftHandRing1
                            {
                                OFFSET 0.743817 -0.005823 -0.153668
                                CHANNELS 3 Zrotation Yrotation Xrotation
                                JOINT LeftHandRing2
                                {
                                    OFFSET 0.234655 -0.263889 -0.005711
                                    CHANNELS 3 Zrotation Yrotation Xrotation
                                    JOINT LeftHandRing3
                                    {
                                        OFFSET -0.121334 -0.062312 0.000952
                                        CHANNELS 3 Zrotation Yrotation Xrotation
                                        End Site
                                        {
                                            OFFSET -0.065290 0.100721 -0.003497
                                        }
                                    }
                                }
                            }
                            JOINT LeftHandLittle1
                            {
                                OFFSET 0.689408 -0.053302 -0.308304
                                CHANNELS 3 Zrotation Yrotation Xrotation
                                JOINT LeftHandLittle2
                                {
                                    OFFSET 0.144654 -0.130498 0.009982
                                    CHANNELS 3 Zrotation Yrotation Xrotation
                                    JOINT LeftHandLittle3
                                    {
                                        OFFSET -0.110673 -0.047374 -0.001868
                                        CHANNELS 3 Zrotation Yrotation Xrotation
                                        End Site
                                        {
                                            OFFSET -0.110368 0.155251 0.002209
                                        }
                                    }
                                }
                            }
                        }
                    }
                }
            }
            JOINT RightCollar
            {
                OFFSET -0.167536 0.778237 -0.168280
                CHANNELS 3 Zrotation Yrotation Xrotation
                JOINT RightShoulder
                {
                    OFFSET -0.831514 -0.002900 0.006457
                    CHANNELS 3 Zrotation Yrotation Xrotation
                    JOINT RightElbow
                    {
                        OFFSET -2.272872 -0.026639 0.059313
                        CHANNELS 3 Zrotation Yrotation Xrotation
                        JOINT RightWrist
                        {
                            OFFSET -2.081982 -0.024402 0.054331
                            CHANNELS 3 Zrotation Yrotation Xrotation
                            JOINT RightHandThumb1
                            {
                                OFFSET -0.218911 -0.128571 0.283837
                                CHANNELS 3 Zrotation Yrotation Xrotation
                                JOINT RightHandThumb2
                                {
                                    OFFSET -0.137157 -0.025101 0.077902
                                    CHANNELS 3 Zrotation Yrotation Xrotation
                                    JOINT RightHandThumb3
                                    {
                                        OFFSET -0.164450 -0.055358 0.058575
                                        CHANNELS 3 Zrotation Yrotation Xrotation
                                        End Site
                                        {
                                            OFFSET -0.189663 -0.017644 0.188555
                                        }
                                    }
                                }
                            }
                            JOINT RightHandFore1
                            {
                                OFFSET -0.767344 -0.015991 0.196679
                                CHANNELS 3 Zrotation Yrotation Xrotation
                                JOINT RightHandFore2
                                {
                                    OFFSET -0.190833 -0.102710 -0.005499
                                    CHANNELS 3 Zrotation Yrotation Xrotation
                                    JOINT RightHandFore3
                                    {
                                        OFFSET 0.092940 -0.086121 0.026596
                                        CHANNELS 3 Zrotation Yrotation Xrotation
                                        End Site
                                        {
                                            OFFSET 0.122272 0.148713 -0.017338
                                        }
                                    }
                                }
                            }
                            JOINT RightHandMiddle1
                            {
                                OFFSET -0.709887 -0.008302 0.018525
                                CHANNELS 3 Zrotation Yrotation Xrotation
                                JOINT RightHandMiddle2
                                {
                                    OFFSET -0.176980 -0.169354 -0.007684
                                    CHANNELS 3 Zrotation Yrotation Xrotation
                                    JOINT RightHandMiddle3
                                    {
                                        OFFSET 0.093118 -0.098727 0.054465
                                        CHANNELS 3 Zrotation Yrotation Xrotation
                                        End Site
                                        {
                                            OFFSET 0.154356 0.176268 -0.027093
                                        }
                                    }
                                }
                            }
                            JOINT RightHandRing1
                            {
                                OFFSET -0.743819 -0.005785 -0.153669
                                CHANNELS 3 Zrotation Yrotation Xrotation
                                JOINT RightHandRing2
                                {
                                    OFFSET -0.234674 -0.263872 -0.005714
                                    CHANNELS 3 Zrotation Yrotation Xrotation
                                    JOINT RightHandRing3
                                    {
                                        OFFSET 0.119753 -0.061337 0.022408
                                        CHANNELS 3 Zrotation Yrotation Xrotation
                                        End Site
                                        {
                                            OFFSET 0.064701 0.101076 0.004189
                                        }
                                    }
                                }
                            }
                            JOINT RightHandLittle1
                            {
                                OFFSET -0.689403 -0.053298 -0.308303
                                CHANNELS 3 Zrotation Yrotation Xrotation
                                JOINT RightHandLittle2
                                {
                                    OFFSET -0.144660 -0.130496 0.009980
                                    CHANNELS 3 Zrotation Yrotation Xrotation
                                    JOINT RightHandLittle3
                                    {
                                        OFFSET 0.106219 -0.039165 0.040979
                                        CHANNELS 3 Zrotation Yrotation Xrotation
                                        End Site
                                        {
                                            OFFSET 0.114400 0.147781 -0.036902
                                        }
                                    }
                                }
                            }
                        }
                    }
                }
            }
        }
    }
    JOINT LeftHip
    {
        OFFSET 0.685143 0.673822 -0.044491
        CHANNELS 3 Zrotation Yrotation Xrotation
        JOINT LeftKnee
        {
            OFFSET 0.085364 -3.750208 0.017676
            CHANNELS 3 Zrotation Yrotation Xrotation
            JOINT LeftAnkle
            {
                OFFSET 0.094583 -4.155206 0.019585
                CHANNELS 3 Zrotation Yrotation Xrotation
                JOINT LeftToe
                {
                    OFFSET -0.000000 -0.395925 0.621478
                    CHANNELS 3 Zrotation Yrotation Xrotation
                    End Site
                    {
                        OFFSET -0.000000 -0.077878 0.321152
                    }
                }
            }
        }
    }
    JOINT RightHip
    {
        OFFSET -0.685143 0.673822 -0.044492
        CHANNELS 3 Zrotation Yrotation Xrotation
        JOINT RightKnee
        {
            OFFSET -0.085364 -3.750208 0.017677
            CHANNELS 3 Zrotation Yrotation Xrotation
            JOINT RightAnkle
            {
                OFFSET -0.094583 -4.155206 0.019585
                CHANNELS 3 Zrotation Yrotation Xrotation
                JOINT RightToe
                {
                    OFFSET -0.000000 -0.395925 0.621478
                    CHANNELS 3 Zrotation Yrotation Xrotation
                    End Site
                    {
                        OFFSET -0.000000 -0.077878 0.321152
                    }
                }
            }
        }
    }
}
MOTION
Frames: 5
Frame Time: 0.033333
-0.246897 8.779722 -1.009099 159.332474 35.593018 177.848480 -7.586906 18.687201 3.130888 0.183001 -2.870358 -3.649850 -5.226127 -6.185758 8.411869 0.936294 -17.609333 18.330048 10.914679 -2.743260 0.527473 36.386887 -30.231295 -79.399399 23.679653 -88.380386 -24.345963 4.890339 -21.812803 51.818459 -0.000005 0.000001 -0.000004 -0.000002 -0.000002 0.000002 -0.000002 -0.000000 -0.000001 0.000002 -0.000000 0.000000 -0.000007 -0.000001 -0.000001 0.000002 -0.000000 0.000002 -0.000002 0.000001 -0.000000 0.000005 0.000000 -0.000003 -0.000002 -0.000001 -0.000002 -0.000005 -0.000000 -0.000003 0.000003 0.000001 0.000001 0.000003 0.000003 0.000000 0.000000 0.000000 -0.000003 0.000002 0.000002 0.000000 0.000002 -0.000004 -0.000004 -10.747580 10.241167 -0.566662 -41.752071 35.071068 -73.711380 -3.732656 81.270111 -4.356316 -15.882326 17.063860 28.105785 -0.000000 0.000004 -0.000003 -0.000004 -0.000005 0.000004 0.000004 0.000007 0.000005 -0.000001 0.000002 0.000003 0.000003 0.000000 -0.000001 0.000001 0.000004 0.000006 -0.000006 0.000000 0.000002 0.000003 -0.000003 0.000001 0.000003 0.000001 -0.000000 -0.000000 0.000002 0.000002 0.000004 -0.000002 -0.000001 -0.000008 -0.000005 -0.000001 0.000000 0.000002 0.000001 0.000001 0.000002 -0.000001 -0.000001 -0.000002 -0.000003 -23.451021 20.782324 -20.909620 0.096963 0.493439 22.232094 -3.412413 -14.650797 -17.480310 -0.000002 -0.000003 -0.000000 -20.638590 2.760941 -46.636436 -0.527359 -1.047538 53.445164 -7.251998 -48.253342 14.780548 0.000002 0.000002 0.000004
-0.247021 8.779736 -1.009064 159.330338 35.595192 177.850800 -7.592013 18.684700 3.127387 0.183409 -2.870037 -3.648456 -5.225773 -6.183733 8.411747 0.936040 -17.604813 18.329964 10.915400 -2.742427 0.527453 36.388668 -30.224817 -79.402916 23.663548 -88.379387 -24.330053 4.892408 -21.813469 51.819786 0.000000 -0.000013 -0.000010 -0.000002 0.000000 0.000000 0.000000 -0.000001 -0.000002 0.000000 -0.000004 -0.000006 -0.000002 -0.000001 0.000002 0.000000 -0.000001 -0.000001 -0.000007 -0.000004 -0.000003 -0.000007 0.000001 -0.000002 -0.000002 0.000002 0.000001 -0.000007 -0.000005 -0.000005 0.000000 0.000002 0.000000 0.000003 -0.000002 0.000002 -0.000009 -0.000004 -0.000006 0.000007 -0.000002 0.000000 -0.000003 0.000002 0.000001 -10.747998 10.240139 -0.566624 -41.756523 35.067860 -73.713936 -3.733046 81.270851 -4.356705 -15.880322 17.064005 28.104712 -0.000001 0.000004 -0.000007 -0.000004 -0.000009 -0.000001 0.000005 0.000010 0.000004 -0.000002 0.000009 0.000002 0.000001 -0.000001 -0.000000 0.000002 0.000001 -0.000001 -0.000018 0.000005 0.000001 0.000002 -0.000006 0.000001 0.000001 -0.000002 0.000001 -0.000009 0.000008 0.000004 0.000002 -0.000002 0.000002 -0.000006 -0.000000 -0.000004 0.000004 0.000002 -0.000002 -0.000002 -0.000002 -0.000000 0.000000 -0.000002 -0.000000 -23.454607 20.781967 -20.913237 0.096951 0.493410 22.230587 -3.412035 -14.650386 -17.480804 -0.000002 -0.000005 0.000003 -20.638912 2.755386 -46.641155 -0.527355 -1.047536 53.444923 -7.255504 -48.248539 14.781114 -0.000002 -0.000002 0.000001
-0.247386 8.779776 -1.008961 159.324020 35.601608 177.857590 -7.607083 18.677269 3.117096 0.184469 -2.869038 -3.644401 -5.224708 -6.177773 8.411424 0.935285 -17.591446 18.329773 10.917671 -2.739967 0.527403 36.393948 -30.205896 -79.413567 23.614088 -88.376289 -24.280684 4.898535 -21.815456 51.823708 -0.000002 -0.000012 0.000001 0.000003 -0.000002 0.000002 0.000000 0.000004 0.000001 -0.000002 -0.000004 0.000000 0.000000 -0.000002 0.000001 -0.000002 0.000001 -0.000000 -0.000005 -0.000007 0.000002 0.000000 0.000001 -0.000002 -0.000002 0.000001 0.000001 -0.000005 -0.000006 -0.000002 0.000003 -0.000002 -0.000002 -0.000002 -0.000002 -0.000001 0.000002 -0.000005 -0.000001 -0.000002 -0.000000 -0.000003 0.000000 -0.000000 -0.000001 -10.749191 10.237071 -0.566495 -41.769608 35.058292 -73.721352 -3.734129 81.273079 -4.357846 -15.874386 17.064444 28.101515 -0.000001 -0.000007 -0.000010 -0.000003 0.000000 -0.000000 0.000003 0.000004 0.000001 -0.000001 0.000001 0.000004 0.000003 -0.000000 -0.000002 -0.000000 -0.000002 -0.000001 -0.000004 -0.000012 -0.000002 0.000004 0.000001 0.000003 -0.000004 0.000001 0.000002 0.000005 -0.000003 0.000001 0.000004 0.000004 0.000001 -0.000004 -0.000002 -0.000003 0.000018 -0.000007 0.000007 0.000003 -0.000001 -0.000002 0.000000 0.000002 -0.000003 -23.465202 20.780956 -20.923859 0.096912 0.493316 22.226046 -3.410907 -14.649188 -17.482208 0.000000 0.000002 -0.000006 -20.639900 2.739001 -46.655003 -0.527340 -1.047523 53.444050 -7.265904 -48.234383 14.782903 0.000002 0.000002 0.000004
-0.247986 8.779842 -1.008793 159.313675 35.612106 177.868698 -7.631815 18.665134 3.100269 0.186176 -2.867404 -3.637707 -5.222979 -6.168014 8.410870 0.934040 -17.569546 18.329454 10.921391 -2.735924 0.527305 36.402885 -30.174860 -79.431274 23.530287 -88.370995 -24.196438 4.908616 -21.818727 51.830170 -0.000012 -0.000001 0.000018 -0.000003 -0.000002 0.000001 0.000000 0.000000 0.000002 0.000000 0.000004 -0.000005 0.000003 -0.000002 0.000000 0.000002 0.000002 -0.000001 -0.000003 -0.000004 -0.000006 -0.000005 0.000002 -0.000000 -0.000003 -0.000001 0.000001 -0.000012 -0.000004 -0.000011 0.000002 0.000003 0.000003 0.000005 0.000001 -0.000001 -0.000003 0.000002 -0.000001 -0.000003 -0.000004 -0.000002 0.000000 -0.000002 -0.000001 -10.751294 10.231995 -0.566303 -41.790779 35.042320 -73.733299 -3.736096 81.276947 -4.359811 -15.864612 17.065155 28.096260 -0.000007 -0.000005 -0.000014 -0.000002 -0.000010 0.000004 0.000001 0.000015 0.000002 -0.000001 -0.000005 0.000002 0.000002 -0.000000 -0.000000 0.000006 -0.000001 -0.000001 -0.000022 -0.000010 0.000004 0.000006 -0.000004 0.000000 -0.000004 0.000006 0.000002 -0.000018 -0.000005 0.000001 0.000005 0.000000 0.000003 -0.000006 0.000001 -0.000002 -0.000008 -0.000005 0.000000 0.000006 -0.000000 0.000003 -0.000005 0.000005 -0.000002 -23.482565 20.779293 -20.941162 0.096847 0.493152 22.218494 -3.409063 -14.647247 -17.484510 0.000000 0.000002 -0.000004 -20.641529 2.712239 -46.677654 -0.527315 -1.047504 53.442616 -7.282869 -48.211243 14.785827 0.000000 -0.000001 0.000005
-0.248812 8.779931 -1.008563 159.299500 35.626518 177.883972 -7.665847 18.648457 3.077185 0.188452 -2.865154 -3.628460 -5.220587 -6.154584 8.410122 0.932329 -17.539396 18.328995 10.926491 -2.730371 0.527180 36.415543 -30.132137 -79.455795 23.413057 -88.363548 -24.079464 4.922549 -21.823242 51.839100 -0.000009 -0.000002 -0.000005 0.000000 -0.000000 0.000002 0.000000 0.000002 0.000001 -0.000010 -0.000008 -0.000008 -0.000002 -0.000000 0.000001 -0.000002 -0.000001 -0.000003 -0.000009 -0.000013 -0.000008 -0.000002 0.000002 0.000000 0.000000 -0.000002 0.000000 -0.000009 -0.000013 -0.000010 0.000003 -0.000001 0.000000 -0.000002 -0.000001 -0.000001 -0.000007 -0.000008 -0.000006 -0.000003 -0.000001 -0.000001 -0.000003 0.000001 0.000002 -10.754098 10.224978 -0.566020 -41.819851 35.020058 -73.749641 -3.738753 81.282288 -4.362511 -15.851104 17.066153 28.089005 -0.000009 -0.000000 -0.000006 0.000001 -0.000003 -0.000003 0.000001 0.000011 0.000008 -0.000002 -0.000002 0.000011 0.000004 0.000005 0.000001 0.000002 -0.000003 0.000000 -0.000021 -0.000005 0.000012 0.000006 0.000001 0.000003 -0.000001 0.000005 0.000004 -0.000012 0.000002 0.000011 0.000001 0.000001 -0.000000 -0.000004 -0.000004 -0.000002 -0.000008 -0.000002 0.000015 0.000002 -0.000001 0.000001 -0.000004 0.000008 -0.000001 -23.506401 20.776999 -20.965015 0.096760 0.492942 22.208345 -3.406464 -14.644658 -17.487867 0.000001 -0.000000 -0.000001 -20.643751 2.675561 -46.708805 -0.527279 -1.047478 53.440731 -7.306040 -48.179493 14.789832 0.000000 0.000001 0.000003
